<svg width="19" height="19" viewBox="0 0 19 19" fill="none" xmlns="http://www.w3.org/2000/svg">
<g clip-path="url(#clip0_54_20902)">
<path d="M4.66978 3.42285H14.2915C14.6206 3.42285 14.9362 3.55359 15.169 3.78631C15.4017 4.01903 15.5324 4.33467 15.5324 4.66379V15.3513C15.5324 15.7801 15.448 16.2048 15.2839 16.601C15.1197 16.9972 14.8792 17.3572 14.576 17.6604C14.2727 17.9637 13.9127 18.2042 13.5165 18.3683C13.1203 18.5324 12.6957 18.6169 12.2668 18.6169H6.70337C5.83727 18.6169 5.00665 18.2729 4.39422 17.6604C3.7818 17.048 3.43774 16.2174 3.43774 15.3513V4.66379C3.43774 4.33621 3.56725 4.02191 3.79805 3.78945C4.02885 3.55698 4.3422 3.4252 4.66978 3.42285Z" stroke="#C9AB81" stroke-linecap="round" stroke-linejoin="round"/>
<path d="M16.0104 1.93555H2.95383C2.55541 1.93555 2.23242 2.25853 2.23242 2.65695V2.70148C2.23242 3.09991 2.55541 3.42289 2.95383 3.42289H16.0104C16.4088 3.42289 16.7318 3.09991 16.7318 2.70148V2.65695C16.7318 2.25853 16.4088 1.93555 16.0104 1.93555Z" stroke="#C9AB81" stroke-linecap="round" stroke-linejoin="round"/>
<path d="M6.46875 1.93562C6.46836 1.72796 6.50893 1.52226 6.58812 1.3303C6.66732 1.13834 6.78359 0.963882 6.93029 0.816909C7.07699 0.669936 7.25123 0.553334 7.44304 0.473778C7.63485 0.394221 7.84047 0.353271 8.04813 0.353271H10.9605C11.3801 0.353271 11.7826 0.519982 12.0794 0.816729C12.3761 1.11348 12.5428 1.51595 12.5428 1.93562" stroke="#C9AB81" stroke-linecap="round" stroke-linejoin="round"/>
<path d="M9.90969 4.97266H9.05469V16.5152H9.90969V4.97266Z" stroke="#C9AB81" stroke-linecap="round" stroke-linejoin="round"/>
<path d="M5.64357 4.97266H4.78857V16.5152H5.64357V4.97266Z" stroke="#C9AB81" stroke-linecap="round" stroke-linejoin="round"/>
<path d="M14.1045 4.97266H13.2495V16.5152H14.1045V4.97266Z" stroke="#C9AB81" stroke-linecap="round" stroke-linejoin="round"/>
</g>
<defs>
<clipPath id="clip0_54_20902">
<rect width="19" height="19" fill="white"/>
</clipPath>
</defs>
</svg>
